<svg width="327" height="44" viewBox="0 0 327 44" fill="none" xmlns="http://www.w3.org/2000/svg">
<path d="M80.496 12.696L74.032 35H70.768L65.584 17.048L60.208 35L56.976 35.032L50.736 12.696H53.84L58.704 31.608L64.08 12.696H67.344L72.464 31.544L77.36 12.696H80.496ZM90.7548 35.224C89.2828 35.224 87.9601 34.968 86.7868 34.456C85.6348 33.9227 84.7281 33.1973 84.0668 32.28C83.4054 31.3413 83.0641 30.264 83.0428 29.048H86.1468C86.2534 30.0933 86.6801 30.9787 87.4268 31.704C88.1948 32.408 89.3041 32.76 90.7548 32.76C92.1414 32.76 93.2294 32.4187 94.0188 31.736C94.8294 31.032 95.2348 30.136 95.2348 29.048C95.2348 28.1947 95.0001 27.5013 94.5308 26.968C94.0614 26.4347 93.4748 26.0293 92.7708 25.752C92.0668 25.4747 91.1174 25.176 89.9228 24.856C88.4508 24.472 87.2668 24.088 86.3708 23.704C85.4961 23.32 84.7388 22.7227 84.0988 21.912C83.4801 21.08 83.1708 19.9707 83.1708 18.584C83.1708 17.368 83.4801 16.2907 84.0988 15.352C84.7174 14.4133 85.5814 13.688 86.6908 13.176C87.8214 12.664 89.1121 12.408 90.5628 12.408C92.6534 12.408 94.3601 12.9307 95.6828 13.976C97.0268 15.0213 97.7841 16.408 97.9548 18.136H94.7548C94.6481 17.2827 94.2001 16.536 93.4108 15.896C92.6214 15.2347 91.5761 14.904 90.2748 14.904C89.0588 14.904 88.0668 15.224 87.2988 15.864C86.5308 16.4827 86.1468 17.3573 86.1468 18.488C86.1468 19.2987 86.3708 19.96 86.8188 20.472C87.2881 20.984 87.8534 21.3787 88.5148 21.656C89.1974 21.912 90.1468 22.2107 91.3628 22.552C92.8348 22.9573 94.0188 23.3627 94.9148 23.768C95.8108 24.152 96.5788 24.76 97.2188 25.592C97.8588 26.4027 98.1788 27.512 98.1788 28.92C98.1788 30.008 97.8908 31.032 97.3148 31.992C96.7388 32.952 95.8854 33.7307 94.7548 34.328C93.6241 34.9253 92.2908 35.224 90.7548 35.224ZM117.939 12.696C120.371 12.696 122.473 13.1547 124.243 14.072C126.035 14.968 127.401 16.2587 128.339 17.944C129.299 19.6293 129.779 21.6133 129.779 23.896C129.779 26.1787 129.299 28.1627 128.339 29.848C127.401 31.512 126.035 32.792 124.243 33.688C122.473 34.5627 120.371 35 117.939 35H110.995V12.696H117.939ZM117.939 32.6C120.819 32.6 123.017 31.8427 124.531 30.328C126.046 28.792 126.803 26.648 126.803 23.896C126.803 21.1227 126.035 18.9573 124.499 17.4C122.985 15.8427 120.798 15.064 117.939 15.064H113.907V32.6H117.939ZM135.124 14.616C134.57 14.616 134.1 14.424 133.716 14.04C133.332 13.656 133.14 13.1867 133.14 12.632C133.14 12.0773 133.332 11.608 133.716 11.224C134.1 10.84 134.57 10.648 135.124 10.648C135.658 10.648 136.106 10.84 136.468 11.224C136.852 11.608 137.044 12.0773 137.044 12.632C137.044 13.1867 136.852 13.656 136.468 14.04C136.106 14.424 135.658 14.616 135.124 14.616ZM136.532 17.464V35H133.62V17.464H136.532ZM148.727 17.176C150.242 17.176 151.565 17.5067 152.695 18.168C153.847 18.8293 154.701 19.6613 155.255 20.664V17.464H158.199V35.384C158.199 36.984 157.858 38.4027 157.175 39.64C156.493 40.8987 155.511 41.88 154.231 42.584C152.973 43.288 151.501 43.64 149.815 43.64C147.511 43.64 145.591 43.096 144.055 42.008C142.519 40.92 141.613 39.4373 141.335 37.56H144.215C144.535 38.6267 145.197 39.48 146.199 40.12C147.202 40.7813 148.407 41.112 149.815 41.112C151.415 41.112 152.717 40.6107 153.719 39.608C154.743 38.6053 155.255 37.1973 155.255 35.384V31.704C154.679 32.728 153.826 33.5813 152.695 34.264C151.565 34.9467 150.242 35.288 148.727 35.288C147.17 35.288 145.751 34.904 144.471 34.136C143.213 33.368 142.221 32.2907 141.495 30.904C140.77 29.5173 140.407 27.9387 140.407 26.168C140.407 24.376 140.77 22.808 141.495 21.464C142.221 20.0987 143.213 19.0427 144.471 18.296C145.751 17.5493 147.17 17.176 148.727 17.176ZM155.255 26.2C155.255 24.8773 154.989 23.7253 154.455 22.744C153.922 21.7627 153.197 21.016 152.279 20.504C151.383 19.9707 150.391 19.704 149.303 19.704C148.215 19.704 147.223 19.96 146.327 20.472C145.431 20.984 144.717 21.7307 144.183 22.712C143.65 23.6933 143.383 24.8453 143.383 26.168C143.383 27.512 143.65 28.6853 144.183 29.688C144.717 30.6693 145.431 31.4267 146.327 31.96C147.223 32.472 148.215 32.728 149.303 32.728C150.391 32.728 151.383 32.472 152.279 31.96C153.197 31.4267 153.922 30.6693 154.455 29.688C154.989 28.6853 155.255 27.5227 155.255 26.2ZM164.624 14.616C164.07 14.616 163.6 14.424 163.216 14.04C162.832 13.656 162.64 13.1867 162.64 12.632C162.64 12.0773 162.832 11.608 163.216 11.224C163.6 10.84 164.07 10.648 164.624 10.648C165.158 10.648 165.606 10.84 165.968 11.224C166.352 11.608 166.544 12.0773 166.544 12.632C166.544 13.1867 166.352 13.656 165.968 14.04C165.606 14.424 165.158 14.616 164.624 14.616ZM166.032 17.464V35H163.12V17.464H166.032ZM174.547 19.864V30.2C174.547 31.0533 174.729 31.6613 175.091 32.024C175.454 32.3653 176.083 32.536 176.979 32.536H179.123V35H176.499C174.878 35 173.662 34.6267 172.851 33.88C172.041 33.1333 171.635 31.9067 171.635 30.2V19.864H169.363V17.464H171.635V13.048H174.547V17.464H179.123V19.864H174.547ZM181.564 26.168C181.564 24.376 181.926 22.808 182.652 21.464C183.377 20.0987 184.369 19.0427 185.628 18.296C186.908 17.5493 188.326 17.176 189.884 17.176C191.42 17.176 192.753 17.5067 193.884 18.168C195.014 18.8293 195.857 19.6613 196.412 20.664V17.464H199.356V35H196.412V31.736C195.836 32.76 194.972 33.6133 193.82 34.296C192.689 34.9573 191.366 35.288 189.852 35.288C188.294 35.288 186.886 34.904 185.628 34.136C184.369 33.368 183.377 32.2907 182.652 30.904C181.926 29.5173 181.564 27.9387 181.564 26.168ZM196.412 26.2C196.412 24.8773 196.145 23.7253 195.612 22.744C195.078 21.7627 194.353 21.016 193.436 20.504C192.54 19.9707 191.548 19.704 190.46 19.704C189.372 19.704 188.38 19.96 187.484 20.472C186.588 20.984 185.873 21.7307 185.34 22.712C184.806 23.6933 184.54 24.8453 184.54 26.168C184.54 27.512 184.806 28.6853 185.34 29.688C185.873 30.6693 186.588 31.4267 187.484 31.96C188.38 32.472 189.372 32.728 190.46 32.728C191.548 32.728 192.54 32.472 193.436 31.96C194.353 31.4267 195.078 30.6693 195.612 29.688C196.145 28.6853 196.412 27.5227 196.412 26.2ZM207.189 11.32V35H204.277V11.32H207.189ZM223.595 32.632H231.403V35H220.683V12.696H223.595V32.632ZM235.999 14.616C235.445 14.616 234.975 14.424 234.591 14.04C234.207 13.656 234.015 13.1867 234.015 12.632C234.015 12.0773 234.207 11.608 234.591 11.224C234.975 10.84 235.445 10.648 235.999 10.648C236.533 10.648 236.981 10.84 237.343 11.224C237.727 11.608 237.919 12.0773 237.919 12.632C237.919 13.1867 237.727 13.656 237.343 14.04C236.981 14.424 236.533 14.616 235.999 14.616ZM237.407 17.464V35H234.495V17.464H237.407ZM245.282 20.728C245.88 19.6827 246.754 18.8293 247.906 18.168C249.058 17.5067 250.37 17.176 251.842 17.176C253.421 17.176 254.84 17.5493 256.098 18.296C257.357 19.0427 258.349 20.0987 259.074 21.464C259.8 22.808 260.162 24.376 260.162 26.168C260.162 27.9387 259.8 29.5173 259.074 30.904C258.349 32.2907 257.346 33.368 256.066 34.136C254.808 34.904 253.4 35.288 251.842 35.288C250.328 35.288 248.994 34.9573 247.842 34.296C246.712 33.6347 245.858 32.792 245.282 31.768V35H242.37V11.32H245.282V20.728ZM257.186 26.168C257.186 24.8453 256.92 23.6933 256.386 22.712C255.853 21.7307 255.128 20.984 254.21 20.472C253.314 19.96 252.322 19.704 251.234 19.704C250.168 19.704 249.176 19.9707 248.258 20.504C247.362 21.016 246.637 21.7733 246.082 22.776C245.549 23.7573 245.282 24.8987 245.282 26.2C245.282 27.5227 245.549 28.6853 246.082 29.688C246.637 30.6693 247.362 31.4267 248.258 31.96C249.176 32.472 250.168 32.728 251.234 32.728C252.322 32.728 253.314 32.472 254.21 31.96C255.128 31.4267 255.853 30.6693 256.386 29.688C256.92 28.6853 257.186 27.512 257.186 26.168ZM266.907 20.312C267.419 19.3093 268.145 18.5307 269.083 17.976C270.043 17.4213 271.206 17.144 272.571 17.144V20.152H271.803C268.539 20.152 266.907 21.9227 266.907 25.464V35H263.995V17.464H266.907V20.312ZM274.845 26.168C274.845 24.376 275.207 22.808 275.933 21.464C276.658 20.0987 277.65 19.0427 278.909 18.296C280.189 17.5493 281.607 17.176 283.165 17.176C284.701 17.176 286.034 17.5067 287.165 18.168C288.295 18.8293 289.138 19.6613 289.693 20.664V17.464H292.637V35H289.693V31.736C289.117 32.76 288.253 33.6133 287.101 34.296C285.97 34.9573 284.647 35.288 283.133 35.288C281.575 35.288 280.167 34.904 278.909 34.136C277.65 33.368 276.658 32.2907 275.933 30.904C275.207 29.5173 274.845 27.9387 274.845 26.168ZM289.693 26.2C289.693 24.8773 289.426 23.7253 288.893 22.744C288.359 21.7627 287.634 21.016 286.717 20.504C285.821 19.9707 284.829 19.704 283.741 19.704C282.653 19.704 281.661 19.96 280.765 20.472C279.869 20.984 279.154 21.7307 278.621 22.712C278.087 23.6933 277.821 24.8453 277.821 26.168C277.821 27.512 278.087 28.6853 278.621 29.688C279.154 30.6693 279.869 31.4267 280.765 31.96C281.661 32.472 282.653 32.728 283.741 32.728C284.829 32.728 285.821 32.472 286.717 31.96C287.634 31.4267 288.359 30.6693 288.893 29.688C289.426 28.6853 289.693 27.5227 289.693 26.2ZM300.47 20.312C300.982 19.3093 301.707 18.5307 302.646 17.976C303.606 17.4213 304.768 17.144 306.134 17.144V20.152H305.366C302.102 20.152 300.47 21.9227 300.47 25.464V35H297.558V17.464H300.47V20.312ZM324.599 17.464L314.039 43.256H311.031L314.487 34.808L307.415 17.464H310.647L316.151 31.672L321.591 17.464H324.599Z" fill="black"/>
<path d="M42.7892 9.49556V17.4592C42.7892 18.1512 42.2276 18.7116 41.5356 18.7116H12.7053C9.81399 18.7116 7.46985 16.3687 7.46985 13.4775C7.46985 12.0318 8.0553 10.723 9.00364 9.77583C9.95081 8.82876 11.2596 8.24341 12.7053 8.24341H41.5356C42.2275 8.24331 42.7892 8.80366 42.7892 9.49556Z" fill="#CFF09E"/>
<path d="M41.5356 19.9548H12.7053C9.13293 19.9548 6.22668 17.0491 6.22668 13.4774C6.22668 11.7457 6.901 10.1187 8.12512 8.89609C9.34748 7.67373 10.9743 7 12.7053 7H41.5356C42.9122 7 44.0323 8.11943 44.0323 9.49551V17.4592C44.0323 18.8354 42.9123 19.9548 41.5356 19.9548ZM12.7053 9.48643C11.6385 9.48643 10.6361 9.90137 9.88264 10.6548C9.12815 11.4084 8.71292 12.4105 8.71292 13.4774C8.71292 15.6781 10.5038 17.4685 12.7052 17.4685H41.5355C41.5428 17.4685 41.5454 17.4631 41.5458 17.462L41.5459 9.4957L41.5355 9.48652L12.7053 9.48643Z" fill="#507C5C"/>
<path d="M44.7847 29.1945H8.75364C5.52083 29.1945 2.89075 26.5644 2.89075 23.3316C2.89075 21.766 3.50081 20.2939 4.60833 19.1862C5.71428 18.0788 7.18655 17.4686 8.75364 17.4686H41.3527C42.0392 17.4686 42.5958 18.0253 42.5958 18.7117C42.5958 19.3983 42.0391 19.9549 41.3527 19.9549H8.75364C7.85139 19.9549 7.00393 20.3061 6.36711 20.9437C5.72834 21.5824 5.37708 22.4301 5.37708 23.3316C5.37708 25.1936 6.89192 26.7082 8.75364 26.7082H44.7847C44.8384 26.7082 44.882 26.6645 44.882 26.6109V24.0169C44.882 23.3304 45.4387 22.7737 46.1251 22.7737C46.8116 22.7737 47.3683 23.3305 47.3683 24.0169V26.6109C47.3683 28.0355 46.2092 29.1945 44.7847 29.1945Z" fill="#507C5C"/>
<path d="M47.4163 38.3669H6.12207C2.88936 38.3669 0.259277 35.7368 0.259277 32.504C0.259277 29.2712 2.88936 26.6411 6.12207 26.6411H45.0361C45.7227 26.6411 46.2793 27.1979 46.2793 27.8843C46.2793 28.5707 45.7226 29.1274 45.0361 29.1274H6.12207C4.26016 29.1274 2.74561 30.6423 2.74561 32.504C2.74561 34.3657 4.26025 35.8806 6.12207 35.8806H47.4163C47.47 35.8806 47.5137 35.8368 47.5137 35.7831V33.1893C47.5137 32.5027 48.0704 31.9461 48.7568 31.9461C49.4433 31.9461 50 32.5028 50 33.1893V35.7831C50 37.2078 48.841 38.3669 47.4163 38.3669Z" fill="#507C5C"/>
<path d="M16.5872 18.7117V27.9514H8.75361C6.20166 27.9514 4.13379 25.8835 4.13379 23.3316C4.13379 22.0569 4.65068 20.9019 5.4873 20.0653C6.32256 19.2287 7.47764 18.7118 8.75361 18.7118H16.5872V18.7117Z" fill="#CFF09E"/>
<path d="M16.5872 29.1945H8.75364C5.52083 29.1945 2.89075 26.5643 2.89075 23.3315C2.89075 21.766 3.50081 20.2938 4.60833 19.1862C5.71389 18.0788 7.18626 17.4685 8.75364 17.4685H16.5872C17.2738 17.4685 17.8304 18.0252 17.8304 18.7117V27.9514C17.8304 28.6378 17.2737 29.1945 16.5872 29.1945ZM8.75364 19.9547C7.8512 19.9547 7.00374 20.3058 6.36721 20.9434C5.72834 21.5823 5.37708 22.43 5.37708 23.3314C5.37708 25.1934 6.89192 26.7081 8.75364 26.7081H15.3441V19.9546L8.75364 19.9547Z" fill="#507C5C"/>
<path d="M16.5872 27.8842V37.1239H5.86299C3.31104 37.1238 1.24316 35.0559 1.24316 32.5041C1.24316 31.2294 1.76006 30.0744 2.59668 29.2378C3.43193 28.4011 4.58701 27.8843 5.86299 27.8843H16.5872V27.8842Z" fill="#CFF09E"/>
<path d="M16.5872 38.367H5.86289C2.63008 38.367 0 35.7368 0 32.504C0 30.9385 0.610059 29.4663 1.71758 28.3587C2.82334 27.2512 4.2957 26.641 5.86289 26.641H16.5872C17.2737 26.641 17.8304 27.1977 17.8304 27.8842V37.1239C17.8304 37.8103 17.2736 38.367 16.5872 38.367ZM5.86289 29.1273C4.96064 29.1273 4.11318 29.4785 3.47646 30.1161C2.8376 30.7547 2.48633 31.6025 2.48633 32.504C2.48633 34.366 4.00117 35.8806 5.86289 35.8806H15.344V29.1272L5.86289 29.1273Z" fill="#507C5C"/>
<path d="M37.3708 33.7471H25.0935C24.407 33.7471 23.8503 33.1904 23.8503 32.504C23.8503 31.8174 24.4071 31.2608 25.0935 31.2608H37.3708C38.0573 31.2608 38.6139 31.8175 38.6139 32.504C38.6139 33.1905 38.0574 33.7471 37.3708 33.7471Z" fill="#507C5C"/>
<path d="M37.3708 24.5747H25.0935C24.407 24.5747 23.8503 24.018 23.8503 23.3315C23.8503 22.645 24.4071 22.0884 25.0935 22.0884H37.3708C38.0573 22.0884 38.6139 22.6451 38.6139 23.3315C38.6139 24.0181 38.0574 24.5747 37.3708 24.5747Z" fill="#507C5C"/>
<path d="M37.3708 14.7206H16.5872C15.9006 14.7206 15.344 14.1638 15.344 13.4774C15.344 12.7909 15.9007 12.2343 16.5872 12.2343H37.3708C38.0573 12.2343 38.6139 12.791 38.6139 13.4774C38.6139 14.1639 38.0574 14.7206 37.3708 14.7206Z" fill="#507C5C"/>
</svg>
